<svg xmlns="http://www.w3.org/2000/svg" width="1500.666" height="384" viewBox="0 0 1500.666 384">
  <g id="Group_15" data-name="Group 15" transform="translate(-1270.334 -1253)">
    <text id="F_P_O_K" data-name="F P O K" transform="translate(1744 1560)" fill="#fff" stroke="#0a1334" stroke-width="1" font-size="320" font-family="Leelawadee"><tspan x="0" y="0">F P O K</tspan></text>
    <g id="Group_14" data-name="Group 14" transform="translate(-34 -1142)">
      <path id="path22" d="M397.519-515.1c6.093-.012,14.19,1.411,18.131,6.293-5.388,1.087-11.6,3.021-17.818,2.188Zm-20.88,5.012c7.541-2.461,6.892-4.764,18.184-5.053l-.288,8.592c-4.009.358-10.315-.619-14.269-1.6Zm21.01-21.825c7.587-.739,17.213,1.246,23.841,3.186,11.094,3.247,11.9,5.244,18.422,7.8l-2.394,2.71c-2.474,1.855-15.942,8.047-17.715,7.726-4.033-.729-.959-4.992-21.99-8.124ZM351.9-521.473c13.748-6.951,23.909-10.394,42.9-10.719l-.249,13.584c-5.162.268-8.9.588-13.306,2.433-2.417,1.012-8.837,4.968-9.544,5.093-1.854.328-8.419-3.054-10.68-4.237C358.049-516.876,353.812-518.951,351.9-521.473Zm45.857-28.689c21.072-.573,42.518,6.367,58.516,13.586-2.137,3.587-9.948,12.214-13.891,13.937-13.527-7.407-26.292-11.788-44.766-12.738Zm-61.44,13.216c21.837-8.082,32.158-13.022,58.419-13.36l.043,14.918c-29.639.613-29.928,6.313-45.6,11.932-4.275-2.348-11.25-10.261-12.86-13.49Zm-12.932-57.909c12.382-3.663,42.679,15.72,53.315,26.169,2.509,2.465,9.839,10.383,10.948,15.208-30.841.659-45.864,11.6-54.352,13.269-3.412-8.4-7.414-12.587-9.922-24.231a69.1,69.1,0,0,1-1.433-23.317Zm81.566,41.211c.275-5.882,13.609-18.91,18.049-21.834,2.691-1.773,4.925-3.5,7.661-5.182,9.256-5.692,25.452-14.13,39.544-13.355,1.782,11.722,1.827,19.228-1.023,30.557a69.765,69.765,0,0,1-4.354,12.722c-2.115,4.4-4.422,7.669-5.842,11.421-8.354-2.747-11.8-5.8-25.327-9.514A128.208,128.208,0,0,0,404.956-553.644Zm-10.293-96.619c12.1-4.033,16.037,13.722,5.455,16.99C389.029-629.847,383.455-646.527,394.663-650.263Zm-66.29,39.37c2.839-7.9,12.777-20.581,17.248-24.211,5.324-4.322,17.034-13.694,26.171-14.879L370.5-631.445c9.908,1.469,12.752,6.923,15.307,16.67,5.53,21.1-2.2,22.993,8.794,22.741l.208-26.717,5.386-.09-.738,26.834,5.669-.008c1.49-9.708.919-16.092,4.637-25.135,4.725-11.5,8.469-10.951,14.908-14.384L423.3-649.359c14.817,3.355,36.009,23.815,41.71,39.745-14.14,3.272-28.608,8.088-39.3,14.774-9.717,6.076-18.7,12.444-26.153,20.8l-2.51,2.626c-.092.081-.377.474-.446.344s-.3.237-.457.341c-2.553-2.219-4.272-4.664-6.749-7.091-2.555-2.5-4.944-3.944-7.286-6.234-7.584-7.415-23.4-16.15-33.869-20.168-3.472-1.333-6.392-2.36-10.054-3.5l-9.307-2.9c-.084-.229-.341-.169-.5-.269Zm-22.592,86.8c0,23.591,23.368,40.918,35.647,50.45,7.947,6.169,16.983,11.607,26.279,17.117,3.467,2.055,25.734,14.384,28.556,14.556,5.9.36,47.516-25.79,54.984-31.3,11.751-8.668,24.932-20.59,31.608-33.146a33.372,33.372,0,0,0,4.356-17.678V-683.464H305.781Z" transform="translate(1116.618 3152.837)" fill="#fefefe" fill-rule="evenodd"/>
      <path id="path24" d="M328.373-610.893c.161.1.418.041.5.269l9.307,2.9c3.662,1.141,6.581,2.168,10.054,3.5C358.7-600.2,374.52-591.469,382.1-584.054c2.343,2.29,4.731,3.73,7.286,6.234,2.477,2.428,4.2,4.872,6.749,7.091.159-.1.388-.473.457-.341s.353-.263.446-.344l2.51-2.626c7.449-8.354,16.436-14.722,26.153-20.8,10.694-6.686,25.162-11.5,39.3-14.774-5.7-15.931-26.893-36.39-41.71-39.745l1.372,17.825c-6.438,3.433-10.182,2.889-14.908,14.384-3.718,9.043-3.147,15.427-4.637,25.135l-5.669.008.738-26.834-5.386.09-.208,26.717c-11,.252-3.264-1.642-8.794-22.741-2.555-9.747-5.4-15.2-15.307-16.67l1.292-18.538c-9.137,1.185-20.847,10.557-26.171,14.879-4.471,3.63-14.409,16.314-17.248,24.211" transform="translate(1116.618 3152.837)" fill="#dd0d0d" fill-rule="evenodd"/>
      <path id="path26" d="M305.781-683.464H487.209v159.373a33.372,33.372,0,0,1-4.356,17.678c-6.676,12.556-19.856,24.478-31.608,33.146-7.468,5.509-49.085,31.659-54.984,31.3-2.822-.172-25.089-12.5-28.556-14.556-9.3-5.51-18.332-10.947-26.279-17.117-12.278-9.532-35.647-26.859-35.647-50.45Zm-2.846-2.846c-.372,1.6-.711,1.636-.711,3.558v162.931c0,11.949,12.245,27.737,19.368,34.705,11.125,10.884,32.409,25.363,45.15,32.4C370.748-450.5,393.1-438,396.139-438c4.316,0,24.873-11.927,29.646-14.466,4.862-2.586,9.144-5.6,13.721-8.335,13.278-7.929,17.809-12.539,27.992-21.1,9.829-8.264,23.269-24.565,23.269-37.919v-162.93c0-1.922-.34-1.962-.712-3.558-1.6-.372-1.636-.711-3.557-.711-19.184,0-178.914-1.094-183.564.711" transform="translate(1116.618 3152.837)" fill="#010101" fill-rule="evenodd"/>
      <path id="path28" d="M344.2-391.755c.924,1.262,5.1,4.981,7.826,4.981,2.252,0,5.854-6.408,10.886-10.459,5.736-4.617,12.578-10.065,19.3-12.717,22.542-8.893,38.591-7.447,62.179-1.6l16.9,4.45a70.772,70.772,0,0,0,7.6,1.723c11.349,2.21,9.659,1.524,21.88,1.524,5.08,0,8.37-1.372,12.817-2.124,5.233-.885,4.743-1.567,8.546-2.838,1.434-.48,1.7-.413,3.256-1.012,4.73-1.826,17.633-7.983,18.07-13.236-6.128.137-10.106,4.981-31.305,4.981-7.1,0-13.52-1.754-18.993-2.462-7.549-.976-23.7-6.244-29.466-7.364-1.858-.361-3.519-.492-5.014-.734-3.792-.614-5.59-1.53-9.835-1.548-4.735-.021-6.2-.7-10.687-.7-5.148,0-8.782.466-14.236.705-7.441.327-28.109,7.458-34.288,11.247-6.888,4.224-11.917,6.4-19.173,12.132-4.306,3.4-14.887,9.911-16.258,15.047" transform="translate(1116.618 3152.837)" fill="#dd0d0d" fill-rule="evenodd"/>
      <path id="path30" d="M404.956-553.644a128.211,128.211,0,0,1,28.708,4.814c13.531,3.712,16.973,6.767,25.327,9.514,1.419-3.751,3.727-7.018,5.842-11.421a69.765,69.765,0,0,0,4.354-12.722c2.85-11.329,2.805-18.836,1.023-30.557-14.092-.775-30.288,7.663-39.544,13.355-2.735,1.682-4.97,3.41-7.661,5.182-4.44,2.925-17.774,15.952-18.049,21.834" transform="translate(1116.618 3152.837)" fill="#010101" fill-rule="evenodd"/>
      <path id="path32" d="M323.39-594.855l-1.445,7.1a69.1,69.1,0,0,0,1.433,23.317c2.508,11.644,6.51,15.835,9.922,24.231,8.488-1.673,23.511-12.61,54.352-13.269-1.109-4.825-8.439-12.743-10.948-15.208-10.635-10.45-40.932-29.832-53.315-26.169" transform="translate(1116.618 3152.837)" fill="#010101" fill-rule="evenodd"/>
      <path id="path34" d="M470.134-427.328l16.365-.712c22.091,0,39.156.379,58.82-10.194,2.9-1.562,8.206-4.588,10.469-6.607l.728-.695c.107-.1.253-.252.36-.352.48-.449.316-.334,1.113-1.022,6.2-5.34,10.389-9.217,12.465-18.129-3.7.083-10.277,5.848-18.022,9.727-21.424,10.728-34.176,10.481-53.129,15.885-3.148.9-7.946,2.562-11.382,2.848.627-2.347,2.431-4.45,3.613-6.348l11.621-19.684c1.358-2.812,2.1-3.458,3.371-6.59,2.572-6.351,7.721-16.72,7.721-23.585-2.975.248-5.8,3.4-7.935,5.583l-6.675,6.843c-2.658,2.9-3.748,3.858-5.789,7.729l-8.513,17.812c-5.737,10.46-3.412,10.2-13.087,22.488-1.266,1.609-2.046,2-2.113,5" transform="translate(1116.618 3152.837)" fill="#dd0d0d" fill-rule="evenodd"/>
      <path id="path36" d="M503.573-447.251c3.705,0,9.564-3.048,13.517-4.982,2.325-1.137,4.041-1.551,6.612-2.637l13.122-5.377c5.2-1.978,4.327-1.045,9.582-3.936,5.184-2.853,5.1-1.758,15.994-8.2l10.649-7.85a66.4,66.4,0,0,0,10.1-12.664l1.751-3.229c1.865-3.442,5.394-9.643,6.182-13.028-4.123.092-3.514.9-8.484,5.035l-28.031,20.35a28.05,28.05,0,0,0-4.452,2.663l-25.913,16.776c.542-2.03,1.945-3.725,2.959-6.291,3.494-8.849,5.127-9.264,7.306-21.154l3.245-15.287c.5-3.622.215-4.848.555-7.28.3-2.124.435-2.356.52-3.814l.356-5.228c0-2.721.218-.259-.711-2.135-6.9.575-16.774,27.47-18.7,37.512a111.837,111.837,0,0,1-6.4,22.058l-7.23,14.115c-1.8,2.53-2.25,1.15-2.535,4.579" transform="translate(1116.618 3152.837)" fill="#dd0d0d" fill-rule="evenodd"/>
      <path id="path38" d="M254.554-427.328c2.2,3.289,13.635,10.778,18.077,12.517,17.992,7.043,25.98,6.8,45.3,5.324,14.164-1.084,25.09-5.156,40.48-6.478,3.478-.3,7.592-.3,11.411-.684,3.381-.34,4.792-2.55,7.236-4.148,2.607-1.7,5.327-2.63,6.986-5.109-3.4-4.639-24.756-7.839-30.718-8.463-6.649-.7-26.432,2.977-33.412,5.521-3.564,1.3-17.723,5.819-22.749,6.422-10.2,1.223-25.666,1.022-34.769-2.787-2.516-1.053-4.144-2.035-7.844-2.117" transform="translate(1116.618 3152.837)" fill="#fefefe" stroke="#707070" stroke-width="1.333" fill-rule="evenodd"/>
      <path id="path40" d="M264.514-470.018c-6.463-4.328-14.925-14.664-31.3-23.485-8.94-4.817-18.958-10.58-26.35-17.762-2.007-1.95-3.031-4.009-6.384-4.288.5,6.049,8.8,19.633,12.261,23.313,17.858,18.963,25.731,20.552,48.9,30.787l13.249,5.25c2.781,1.114,3.562,1.818,6.7,2.55-.09-4.036-10.427-17.142-14.644-38.718a157.411,157.411,0,0,0-5.779-21.258l-6.722-13.2c-1.739-2.915-.623-2.17-3.45-3.665-3.589,7.481.082,25.819,1.974,32.888,2.011,7.511,10.4,22.692,11.544,27.588" transform="translate(1116.618 3152.837)" fill="#fefefe" stroke="#707070" stroke-width="1.333" fill-rule="evenodd"/>
      <path id="path42" d="M300.8-440.847c-3.545-.079-17.983-6.471-21.941-7.941-16.586-6.161-33.352-8.151-50.276-16.6-2.842-1.42-13.783-9.7-4.017,3.3,7.731,10.3,13.862,14.3,24.993,19.831l11.543,4.11c8.294,2.294,14.183,4.624,24.762,5.121l27.742,2.852c-.244-2.929-8.878-18.808-11.866-25.842l-3.578-9.229c-2.966-6.986-15.214-27.6-22.976-28.251,0,12.964,9.884,30.348,17.209,41.133,2.78,4.093,5.752,7.556,8.4,11.517" transform="translate(1116.618 3152.837)" fill="#fefefe" stroke="#707070" stroke-width="1.333" fill-rule="evenodd"/>
      <path id="path44" d="M572.588-553.263c0-17.907.319-26.019-5.994-43.1-1.779-4.814-4.611-13.251-7.35-17.552-1.132-1.778-.547-1.689-3.021-1.96-.659,1.374.358,8.948-.526,15.145-.626,4.385.335,5.476.513,9.059a94.948,94.948,0,0,0,2.276,17.645c5.191,20.575,6.986,17.7,6.986,40.683,0,2.858-4.074,2.487.712,5.692,2.066-1.384,1.917-1.861,2.856-4.259,3.024-7.721,10.049-16.464,14.506-23.2,6.525-9.866,7.215-8.265,14.962-22.035,5.751-10.221,6.807-21.817,6.807-33.747,0-4.078-1.136-5.088-1.423-8.538h-2.134L591.7-594.623c-.708,1.649-1.215,2.362-1.9,3.787l-15.076,33.305c-.076.139-.179.318-.253.458Z" transform="translate(1116.618 3152.837)" fill="#dd0d0d" fill-rule="evenodd"/>
      <path id="path46" d="M246.727-492.785c-.257-3.09-1.492-5.61-1.94-8.021-2.233-12.032-.039-31.56-.505-39.582-.382-6.582-1.762-25.543-6.8-29.237-2.035,1.363-2.028,1.881-2.794,4.321-3.744,11.926-3.794,40.509-1.475,50.464a8.571,8.571,0,0,1-2.719-2.973l-23.5-32.708c-4.7-5.788-10.819-10.98-14.53-17.487-1.312-2.3-.732-2.338-3.363-3.04,0,7.741,4.784,20.229,7.205,26.234,4.613,11.438,20.767,30.132,30.391,37.912,1.651,1.335,3.161,2.363,4.957,3.581,3.245,2.2,12,10.28,15.077,10.536" transform="translate(1116.618 3152.837)" fill="#fefefe" stroke="#707070" stroke-width="1.333" fill-rule="evenodd"/>
      <path id="path48" d="M545.552-546.859l.734,12.784c.547,8.6,1.4,6.987,1.4,19.945,0,3.931-2.484,18.981-4.058,22.978-1.2,3.033-2.257,2.948-2.345,6.9,2.781-.231,2.87-1.13,5.13-2.7l30.373-25.835c7.479-7.155,12.947-16.764,17.273-26.127a49.761,49.761,0,0,0,2.38-6.158l3.186-13.89c-3.56.3-5.141,3.858-8.879,8.2l-5.074,5.6c-.1.1-.258.247-.363.349s-.263.242-.366.345l-9.938,12.118c-7.449,7.947-14.832,22.45-18.07,24.619.123-5.523,2.135-8.2,2.135-18.5a96.107,96.107,0,0,0-2.673-22.23l-2.831-15.668c-.491-3.008.074-3.11-3.035-3.369-.113,5.082-4.981,11.27-4.981,20.633" transform="translate(1116.618 3152.837)" fill="#dd0d0d" fill-rule="evenodd"/>
      <path id="path50" d="M188.385-614.45c0,21.262,3.845,27.827,13.806,44.537l9.295,12.05c.616.754.965,1.254,1.522,2.036l8.222,10.988c1.276,1.954.942,2.293,3.443,2.961,0-29.543,17.755-48.782,11.384-76.129-5.042,1.346-11,20.038-11.911,24.374-2.563,12.141-4.453,18.119-4.453,32.544-2.177-1.595-5.861-13.636-7.1-16.375-1.3-2.857-2.052-5.654-3.352-8.743-1.223-2.906-2.585-5.213-4.01-8.086-5.173-10.431-6.935-13.409-11.35-24.936-1.157-3.021-1.406-6.872-2.644-9.451-3.045,2.231-2.846,9.708-2.846,14.23" transform="translate(1116.618 3152.837)" fill="#fefefe" stroke="#707070" stroke-width="1.333" fill-rule="evenodd"/>
      <path id="path52" d="M215.422-615.873c0-10.623-.926-7.561-1.423-18.5-.2-4.409-1.662-9.124-2.042-12.9l-2.227-28.367c-2.9.775-2.007,1.209-4.157,5.8-8.593,18.366-6.437,35.424-.208,54.057l9.345,24.095h2.135c.853-10.248,8.69-25.932,14.628-33.753,8.954-11.792,10.244-14.671,13.449-28.528.612-2.644,1.025-2.252,1.093-5.31h-2.134c-1.017,3.81-9.71,11.742-12.6,15.148-6.6,7.772-11.768,18.552-14.86,28.54-.663,2.141-.545,1.93-1.71,3.27.372-1.6.712-1.636.712-3.557" transform="translate(1116.618 3152.837)" fill="#fefefe" stroke="#707070" stroke-width="1.333" fill-rule="evenodd"/>
      <path id="path54" d="M580.415-608.047c-2.445-2.813-6.1-14.073-10.279-21.027L554.2-650.135c-1.684-1.847-3.676-2.943-4.38-5.581h-2.846c0,6.644,1.677,11.017,4.186,17.158a35.677,35.677,0,0,0,2.21,4.193c4.4,8.1,11.38,15.642,15.183,21.814.951,1.543,1.426,2.489,2.382,4.021,1.245,2,1.343,1.833,2.5,3.9a43.822,43.822,0,0,1,3.684,8.411c2.53,8.192.691,7.917,4.006,8.8l6.506-21.953c6.412-16.985,6.3-20.512,6.3-37.1l-3.271-14.516c-.766-3.1-3.151-11.682-5.266-13.232l-2.943,24.094c-.32,2.981-1.111,3.983-1.331,7.918Z" transform="translate(1116.618 3152.837)" fill="#dd0d0d" fill-rule="evenodd"/>
      <path id="path56" d="M568.32-657.14c-2.251-1.649-7.1-10.489-9.563-13.2-.1-.109-.244-.261-.344-.368l-7.227-7.715c-3.135-2.973-13.434-9.531-17.834-11.337-3.194-1.311-3.658-2.672-7.01-2.951.126,5.661,4.408,8.905,6.8,12.412,5.47,8.022,13.617,14.669,20.954,21.024l3.248,3.155c.9.975.975,1.163,1.7,1.859,4.124,3.967,8.827,7.837,12.048,13.566,1.3,2.317.817,2.69,4.346,2.769,0-4.04,1.254-6.108,1.43-9.954.085-1.848-.105-3.855-.009-5.7.159-3.079.555-2.619.734-5.7.194-3.334-.882-17.051-2.6-20.882-3.954-8.8-.355-4.638-7.665-15.814-2.449-3.744-6.909-11.976-11.807-12.384.1,4.377,12.8,51.159,12.807,51.227" transform="translate(1116.618 3152.837)" fill="#dd0d0d" fill-rule="evenodd"/>
      <path id="path58" d="M218.979-671.369c0,11.737,1.423,19.448,1.423,28.459,4.4-1.026,3.886-4.267,11.562-11.918,6.629-6.607,10.771-10.767,18.334-16.529,1.367-1.042,1.694-1.5,3.055-2.636l4.145-3.682c3.783-4.123,12.227-15.835,13.037-20.548.946-5.5-6.919,3.047-11.746,6.187-2.609,1.7-4.567,3.094-7.229,4.867-5.515,3.673-11.806,8.258-15.807,13.363l-6.248,8.695c-.088.118-.22.293-.307.4a8.831,8.831,0,0,1-.969,1.166c.232-2.786,1.485-6.757,1.94-9.444.651-3.839,1.069-5.9,1.9-9.487.585-2.539,8.512-40.952-2.9-21.4-5.819,9.972-10.187,18.268-10.187,32.5" transform="translate(1116.618 3152.837)" fill="#fefefe" stroke="#707070" stroke-width="1.333" fill-rule="evenodd"/>
      <path id="path60" d="M408.235-729c0-12.049.63-10.672,17.076-10.672,6.387,0,4.981,4.984,4.981,12.1,0,5.171-9.784,3.558-17.076,3.558q-4.982,0-4.981-4.981Zm-9.961-10.672c0,26.667-2.224,23.479,32.728,23.479,12.289,0,9.961-12.123,9.961-21.345,0-13.146-17.473-9.961-32.017-9.961-4.822,0-10.672,2.981-10.672,7.826" transform="translate(1116.618 3152.837)" fill="#fefefe" stroke="#707070" stroke-width="1.333" fill-rule="evenodd"/>
      <path id="path62" d="M397.62-535.377c18.474.951,31.239,5.331,44.766,12.738,3.943-1.723,11.754-10.35,13.891-13.937-16-7.219-37.444-14.159-58.516-13.586Z" transform="translate(1116.618 3152.837)" fill="#010101" fill-rule="evenodd"/>
      <path id="path64" d="M381.91-732.557H362.7v-7.115h19.21C385.824-739.672,385.824-732.557,381.91-732.557Zm-29.171,16.364H362.7v-8.538h24.19c11.367,0,12.581-22.767-2.134-22.767H352.739Z" transform="translate(1116.618 3152.837)" fill="#fefefe" stroke="#707070" stroke-width="1.333" fill-rule="evenodd"/>
      <path id="path66" d="M336.322-536.945c1.61,3.228,8.585,11.142,12.86,13.49,15.674-5.619,15.963-11.319,45.6-11.932l-.043-14.918c-26.262.339-36.582,5.279-58.419,13.36" transform="translate(1116.618 3152.837)" fill="#010101" fill-rule="evenodd"/>
      <path id="path68" d="M443.1-716.193h9.961v-9.961c3.383-.9,4.558-3.341,8.538-4.269.614,2.3,2.814,4.172,5.073,7.023,2.142,2.7,3.676,4.334,5.6,7.207h13.519c-2.386-3.562-5.4-6.669-8.231-10.268-2.923-3.722-5.625-6.619-8.134-10.365,1.815-.484,6.862-3.855,8.546-4.973,2.043-1.357,6.539-3.953,7.819-5.7-3.515,0-7.248-.134-10.726-.053-4.407.1-11.2,5.416-14.888,7.88-1.973,1.32-4.719,3.629-7.115,4.269v-12.1H443.1Z" transform="translate(1116.618 3152.837)" fill="#fefefe" stroke="#707070" stroke-width="1.333" fill-rule="evenodd"/>
      <path id="path70" d="M239.611-688.445c0,4.226,5.6-.955,10.971-4.683,1.823-1.266,2.412-1.927,3.977-3.137l12.378-11.813c5.14-5.14,23.452-24.267,25.325-32.305-2.656.29-1.378.368-2.1.745l-.877.547c-8.043,5.033-6.283,3.362-14.107,7.237-5.231,2.59-3.65,2.432-7.68,5.127l-5.757,4.915c-6.691,6.421-22.128,31.024-22.128,33.368" transform="translate(1116.618 3152.837)" fill="#fefefe" stroke="#707070" stroke-width="1.333" fill-rule="evenodd"/>
      <path id="path72" d="M554.8-684.176c0-9.521-9.487-23.447-16.636-31.033l-2.846-2.846c-.106-.1-.258-.246-.365-.346l-11.237-9.4c-5.073-4.138-10.366-7.605-17.3-7.605,1.6,3.026,2.545,4.8,4.4,7.7l5.4,7.41c7.024,8.527,11.777,14.22,20.48,21.5l8.786,7.578c.108.1.255.249.363.348s.254.251.361.351c.458.427.337.352,1.114,1.021,2.575,2.218,4.224,4.562,7.485,5.322" transform="translate(1116.618 3152.837)" fill="#dd0d0d" fill-rule="evenodd"/>
      <path id="path74" d="M397.812-518.615c21.031,3.131,17.958,7.395,21.99,8.124,1.774.321,15.241-5.871,17.715-7.726l2.394-2.71c-6.526-2.559-7.328-4.555-18.422-7.8-6.629-1.94-16.255-3.925-23.841-3.186Z" transform="translate(1116.618 3152.837)" fill="#010101" fill-rule="evenodd"/>
      <path id="path76" d="M351.9-521.472c1.909,2.522,6.145,4.6,9.121,6.154,2.261,1.183,8.826,4.565,10.68,4.237.707-.125,7.127-4.081,9.544-5.093,4.407-1.845,8.145-2.165,13.306-2.433l.249-13.584c-18.991.325-29.152,3.769-42.9,10.719" transform="translate(1116.618 3152.837)" fill="#010101" fill-rule="evenodd"/>
      <path id="path78" d="M307.915-716.193h9.961v-12.1H350.6V-735.4H307.915Z" transform="translate(1116.618 3152.837)" fill="#fefefe" stroke="#707070" stroke-width="1.333" fill-rule="evenodd"/>
      <path id="path80" d="M307.915-739.672H350.6V-747.5H307.915Z" transform="translate(1116.618 3152.837)" fill="#fefefe" stroke="#707070" stroke-width="1.333" fill-rule="evenodd"/>
      <path id="path82" d="M405.388-411.676c.654,2.448,1,2.215,2.825,3.579l25.635,23.458c3.375,0,5.139-.8,7.826-1.423-.22-2.647-2.155-4.3-4.907-7.189L421.859-406.8c-1.822-1.463-2.823-2.371-4.673-3.866-6.139-4.961-5.01-2.821-11.8-1.009" transform="translate(1116.618 3152.837)" fill="#fefefe" stroke="#707070" stroke-width="1.333" fill-rule="evenodd"/>
      <path id="path84" d="M394.663-650.262c-11.208,3.735-5.634,20.416,5.455,16.99,10.581-3.268,6.647-21.024-5.455-16.99" transform="translate(1116.618 3152.837)" fill="#fff401" fill-rule="evenodd"/>
      <path id="path86" d="M397.832-506.623c6.218.833,12.431-1.1,17.818-2.188-3.941-4.882-12.038-6.3-18.131-6.293Z" transform="translate(1116.618 3152.837)" fill="#010101" fill-rule="evenodd"/>
      <path id="path88" d="M376.639-510.092l3.626,1.94c3.953.98,10.26,1.957,14.269,1.6l.288-8.592c-11.292.288-10.643,2.592-18.184,5.053" transform="translate(1116.618 3152.837)" fill="#010101" fill-rule="evenodd"/>
      <path id="path90" d="M474.4-374.679l.212-.212c-.014.014-.283.141-.212.212" transform="translate(1116.618 3152.837)" fill="#828181" fill-rule="evenodd"/>
    </g>
  </g>
</svg>
